<svg xmlns="http://www.w3.org/2000/svg" width="46" height="60" viewBox="0 0 46 60">
  <defs>
    <style>
      .cls-1 {
        fill: #dcdcdc;
        fill-rule: evenodd;
      }
    </style>
  </defs>
  <path id="doc.svg" class="cls-1" d="M790.692,564H755.308A5.3,5.3,0,0,1,750,558.726V509.273A5.3,5.3,0,0,1,755.308,504h24.768a1.782,1.782,0,0,1,1.252.515l14.153,14.062A1.768,1.768,0,0,1,796,519.82v38.906A5.3,5.3,0,0,1,790.692,564Zm-8.846-54v6.3a1.765,1.765,0,0,0,1.769,1.757h6.344Zm10.615,11.576h-8.846a5.3,5.3,0,0,1-5.308-5.273v-8.789h-23a1.765,1.765,0,0,0-1.77,1.757v49.453a1.766,1.766,0,0,0,1.77,1.758h35.384a1.765,1.765,0,0,0,1.769-1.758V521.578Zm-8.846,24.844H762.384a1.758,1.758,0,1,1,0-3.516h21.231A1.758,1.758,0,1,1,783.615,546.422Zm0-7.031H762.384a1.758,1.758,0,1,1,0-3.516h21.231A1.758,1.758,0,1,1,783.615,539.391Zm0-7.032H762.384a1.758,1.758,0,1,1,0-3.515h21.231A1.758,1.758,0,1,1,783.615,532.359Zm-21.231,17.578h14.154a1.758,1.758,0,1,1,0,3.516H762.384A1.758,1.758,0,1,1,762.384,549.937Z" transform="translate(-750 -504)"/>
</svg>
