<?xml version="1.0" standalone="no"?>
<!DOCTYPE svg PUBLIC "-//W3C//DTD SVG 20010904//EN"
 "http://www.w3.org/TR/2001/REC-SVG-20010904/DTD/svg10.dtd">
<svg version="1.0" xmlns="http://www.w3.org/2000/svg"
 width="414.000000pt" height="414.000000pt" viewBox="0 0 414.000000 414.000000"
 preserveAspectRatio="xMidYMid meet">
<metadata>
Created by potrace 1.14, written by Peter Selinger 2001-2017
</metadata>
<g transform="translate(0.000000,414.000000) scale(0.100000,-0.100000)"
fill="#000000" stroke="none">
<path d="M1945 4074 c-359 -195 -645 -319 -1000 -435 -137 -45 -269 -88 -292
-96 -41 -15 -42 -17 -68 -102 -86 -286 -204 -616 -277 -781 -23 -52 -195 -396
-257 -514 l-41 -79 24 -41 c13 -23 76 -144 139 -271 101 -201 128 -259 167
-350 4 -11 15 -36 23 -55 40 -92 170 -474 227 -667 l21 -71 267 -87 c147 -48
281 -93 297 -100 17 -7 89 -36 160 -65 133 -54 424 -194 621 -299 l111 -59 44
25 c67 39 434 224 524 265 166 75 358 148 605 228 140 45 260 84 266 85 7 2
22 37 34 77 52 175 157 484 207 612 82 209 233 526 344 723 l29 51 -50 94
c-230 427 -373 773 -525 1279 -30 101 11 78 -330 189 -277 90 -344 115 -530
197 -141 62 -426 204 -560 279 l-60 33 -120 -65z m340 -352 c110 -55 234 -114
275 -132 41 -18 89 -38 105 -45 105 -47 307 -120 480 -175 72 -22 136 -44 144
-48 8 -5 44 -100 81 -212 119 -362 180 -510 355 -861 52 -103 90 -191 85 -195
-15 -16 -186 -364 -243 -495 -72 -164 -126 -312 -202 -544 l-62 -190 -194 -66
c-203 -68 -406 -143 -449 -164 -14 -7 -41 -20 -60 -28 -121 -52 -404 -190
-490 -239 -8 -4 -21 -11 -29 -15 -8 -3 -101 38 -220 97 -329 164 -480 227
-824 344 l-208 71 -80 240 c-43 132 -83 249 -89 260 -5 11 -23 56 -40 100 -17
44 -40 100 -51 125 -55 120 -130 276 -189 391 l-66 127 121 243 c140 284 220
478 320 784 l72 220 167 56 c363 123 572 210 871 362 110 56 205 99 210 96 6
-4 100 -52 210 -107z"/>
<path d="M2598 2595 c-2 -2 -36 -5 -77 -9 -143 -12 -219 -49 -260 -129 -21
-41 -24 -62 -24 -145 -1 -112 13 -168 50 -213 58 -69 111 -77 488 -79 143 -1
275 -6 293 -12 31 -9 61 -48 56 -75 -1 -7 -2 -20 -3 -28 -2 -22 -41 -43 -96
-51 -27 -4 -136 -7 -240 -7 -221 0 -244 5 -259 66 -8 32 -13 37 -40 38 -31 1
-151 0 -216 0 l-36 -1 2 -51 c7 -146 54 -210 173 -235 116 -24 651 -23 786 1
120 22 181 72 202 166 4 19 7 77 7 129 0 117 -24 176 -86 218 -61 40 -127 48
-422 51 -149 1 -287 5 -306 8 -61 9 -86 47 -67 105 14 43 55 50 293 52 201 1
214 0 241 -20 15 -12 29 -32 31 -46 l3 -25 137 1 137 1 -2 67 c-3 77 -27 136
-70 166 -25 17 -68 35 -83 35 -3 0 -16 4 -30 9 -21 9 -573 20 -582 13z"/>
<path d="M850 2122 l0 -469 143 1 142 1 1 173 c1 95 4 175 7 179 4 3 36 5 72
5 62 0 68 -2 118 -43 28 -24 54 -46 57 -49 5 -5 89 -76 154 -131 16 -13 58
-49 94 -80 l65 -56 209 0 c193 1 208 2 189 16 -11 9 -144 115 -296 236 l-275
220 33 30 c19 17 118 102 221 190 104 88 209 179 234 202 l47 43 -195 0 -195
0 -35 -32 c-19 -17 -58 -52 -85 -77 -28 -25 -82 -74 -120 -108 -39 -34 -88
-78 -110 -97 -38 -34 -44 -36 -112 -36 -73 0 -73 0 -74 28 0 15 -1 93 -1 175
l-1 147 -143 0 -144 0 0 -468z"/>
<path d="M1979 2202 c-119 -61 -81 -232 51 -232 120 0 168 160 67 224 -35 23
-82 26 -118 8z"/>
</g>
</svg>
